<svg class="h-5 w-5" data-v-87b8daac-s="" fill="none" height="24" viewbox="0 0 24 24" width="24" xmlns="http://www.w3.org/2000/svg"><path d="M5.202 2.856C7.954 4.922 10.914 9.111 12 11.358c1.087-2.247 4.046-6.436 6.798-8.502C20.783 1.366 24 .213 24 3.882c0 .733-.42 6.157-.667 7.038-.856 3.061-3.978 3.842-6.755 3.37 4.854.826 6.089 3.562 3.422 6.298-5.064 5.197-7.279-1.304-7.847-2.97-.104-.305-.152-.448-.153-.326 0-.122-.05.021-.153.327-.568 1.665-2.782 8.166-7.847 2.97-2.667-2.737-1.432-5.474 3.422-6.3-2.777.473-5.899-.308-6.755-3.37C.42 10.04 0 4.616 0 3.883c0-3.67 3.217-2.516 5.202-1.026" data-v-87b8daac-s="" fill="currentColor"></path></svg>