<svg clip-rule="evenodd" fill-rule="evenodd" stroke-linecap="round" stroke-linejoin="round" stroke-miterlimit="2" viewbox="0 0 24 24" xml:space="preserve" xmlns="http://www.w3.org/2000/svg" xmlns:xlink="http://www.w3.org/1999/xlink">
<defs>
<path d="M442.5 233.9c0-6.4-5.2-11.6-11.6-11.6h-197c-6.4 0-11.6 5.2-11.6 11.6v197c0 6.4 5.2 11.6 11.6 11.6h197c6.4 0 11.6-5.2 11.6-11.7v-197Z" fill="none" id="quilt" stroke="currentColor" stroke-width="65.6"></path>
</defs>
<path d="M0 0h24v24H0z" fill="none"></path>
<use stroke-width="65.6" transform="matrix(.03053 0 0 .03046 -3.2 -3.2)" xlink:href="#quilt"></use>
<use stroke-width="65.6" transform="matrix(.03053 0 0 .03046 -3.2 7)" xlink:href="#quilt"></use>
<use stroke-width="65.6" transform="matrix(.03053 0 0 .03046 6.9 -3.2)" xlink:href="#quilt"></use>
<path d="M442.5 234.8c0-7-5.6-12.5-12.5-12.5H234.7c-6.8 0-12.4 5.6-12.4 12.5V430c0 6.9 5.6 12.5 12.4 12.5H430c6.9 0 12.5-5.6 12.5-12.5V234.8Z" fill="none" stroke="currentColor" stroke-width="70.4" transform="rotate(45 3.5 24) scale(.02843 .02835)"></path>
</svg>