<svg xmlns="http://www.w3.org/2000/svg" xmlns:xlink="http://www.w3.org/1999/xlink" width="14" height="12" viewBox="0 0 14 12" fill="none">
<path d="M13.1265 6.85211L2.99145 6.85211L6.72479 10.5128C7.07179 10.8531 7.07179 11.4045 6.72479 11.7448C6.37778 12.0851 5.82735 12.0851 5.48034 11.7448L0.251282 6.62919C0.0717949 6.45319 0 6.23026 0 5.9956C0 5.77267 0.0717949 5.53801 0.251282 5.36201L5.48034 0.246395C5.82735 -0.0821315 6.37778 -0.0821315 6.72479 0.246395C7.07179 0.586654 7.07179 1.13811 6.72479 1.47837L2.99145 5.13909L13.1265 5.13909C13.6051 5.13909 14 5.52628 14 5.9956C14 6.46492 13.6051 6.85211 13.1265 6.85211Z"   fill="#FFFFFF" >
</path>
</svg>
