<svg xmlns="http://www.w3.org/2000/svg" xmlns:xlink="http://www.w3.org/1999/xlink" width="52" height="16" viewBox="0 0 52 16" fill="none">
<path    stroke="rgba(255, 255, 255, 1.00)" stroke-width="1.65"    d="M2.36364 16L2.36364 2.2069L5.31818 2.2069C5.38586 2.2069 5.45352 2.20845 5.52116 2.21155C5.58876 2.21465 5.65624 2.21931 5.72361 2.2255C5.79097 2.2317 5.85814 2.23943 5.92511 2.2487C5.99208 2.25798 6.05875 2.26878 6.12513 2.28111C6.19155 2.29344 6.25759 2.30729 6.32326 2.32264C6.38889 2.338 6.45411 2.35485 6.51891 2.3732C6.58368 2.39155 6.64793 2.41137 6.71167 2.43266C6.77541 2.45395 6.83855 2.4767 6.90111 2.50088C6.96363 2.52507 7.0255 2.55068 7.08672 2.5777C7.14789 2.60473 7.20834 2.63314 7.26807 2.66293C7.32775 2.69273 7.38662 2.72387 7.44469 2.75637C7.50276 2.78886 7.55993 2.82266 7.61623 2.85778C7.67253 2.89289 7.72785 2.92928 7.78222 2.96693C7.83658 3.00458 7.88994 3.04345 7.94229 3.08355C7.99461 3.12365 8.04584 3.16492 8.09599 3.20737C8.14614 3.24981 8.19514 3.29338 8.24301 3.33808C8.29093 3.38277 8.33761 3.42853 8.38305 3.47537C8.42849 3.5222 8.47269 3.57004 8.51565 3.6189C8.55861 3.66776 8.60021 3.71757 8.64057 3.76834C8.68087 3.81911 8.71981 3.87077 8.75745 3.92332C8.79509 3.97587 8.83126 4.02926 8.86606 4.08347C8.90087 4.13768 8.93419 4.19266 8.96616 4.2484C8.99807 4.30414 9.0285 4.36059 9.0574 4.41772C9.08635 4.47486 9.11377 4.53262 9.13971 4.59102C9.16559 4.64941 9.18994 4.70837 9.21275 4.76788C9.23556 4.82739 9.25677 4.88739 9.27645 4.94787C9.29613 5.00836 9.31415 5.06925 9.33058 5.13057C9.34706 5.19188 9.36189 5.25353 9.37507 5.31552C9.38825 5.37751 9.39983 5.43977 9.40976 5.50229C9.41968 5.56482 9.42796 5.62754 9.43464 5.69043C9.44125 5.75333 9.44622 5.81634 9.44958 5.87946C9.45289 5.94261 9.45455 6.00578 9.45455 6.06897C9.45455 6.13216 9.45289 6.19533 9.44958 6.25849C9.44622 6.32161 9.44125 6.38461 9.43464 6.44751C9.42796 6.51041 9.41968 6.57312 9.40976 6.63565C9.39983 6.69816 9.38825 6.76045 9.37507 6.82241C9.36189 6.88442 9.34706 6.9461 9.33058 7.0074C9.31415 7.0687 9.29613 7.12961 9.27645 7.19008C9.25677 7.25055 9.23556 7.31052 9.21275 7.37005C9.18994 7.42958 9.16559 7.4885 9.13971 7.54693C9.11377 7.6053 9.08635 7.66307 9.0574 7.72023C9.0285 7.77733 8.99807 7.83377 8.9661 7.88955C8.93419 7.94528 8.90087 8.00023 8.86606 8.05446C8.83126 8.1087 8.79509 8.16205 8.75745 8.21463C8.71981 8.26721 8.68087 8.31885 8.64057 8.36961C8.60021 8.42037 8.55861 8.47019 8.51565 8.51907C8.47269 8.5679 8.42849 8.61573 8.38305 8.66257C8.33761 8.70941 8.29093 8.75515 8.24301 8.79984C8.19514 8.84459 8.14614 8.88817 8.09599 8.9306C8.04584 8.97303 7.99461 9.0143 7.94229 9.05441C7.88994 9.09452 7.83658 9.13336 7.78222 9.17104C7.72785 9.20867 7.67253 9.24503 7.61623 9.28017C7.55993 9.31532 7.50276 9.34908 7.44469 9.38158C7.38662 9.41408 7.32775 9.44519 7.26807 9.47499C7.20834 9.50483 7.14789 9.53325 7.08672 9.56023C7.0255 9.58726 6.96363 9.61286 6.90111 9.63708C6.83855 9.66125 6.77541 9.68398 6.71167 9.70528C6.64793 9.72657 6.58368 9.74638 6.51891 9.76475C6.45411 9.78312 6.38889 9.79995 6.32326 9.81529C6.25759 9.83068 6.19155 9.84453 6.12513 9.85683C6.05875 9.86914 5.99208 9.87995 5.92511 9.88922C5.85814 9.89849 5.79097 9.90621 5.72361 9.91245C5.65624 9.91863 5.58876 9.92326 5.52116 9.92641C5.45352 9.9295 5.38586 9.93104 5.31818 9.93104L2.36364 9.93104M23.0455 3.58621C22.9734 3.52469 22.9001 3.465 22.8255 3.40715C22.7508 3.3493 22.675 3.29336 22.5979 3.23932C22.5208 3.18528 22.4426 3.1332 22.3633 3.08309C22.2839 3.03297 22.2035 2.98487 22.1221 2.93878C22.0407 2.8927 21.9583 2.84869 21.875 2.80674C21.7916 2.76479 21.7074 2.72495 21.6223 2.68723C21.5372 2.64951 21.4514 2.61394 21.3647 2.58052C21.2781 2.5471 21.1908 2.51588 21.1028 2.48684C21.0149 2.45781 20.9263 2.431 20.8371 2.40641C20.7479 2.38182 20.6583 2.35948 20.5682 2.33938C20.4781 2.31929 20.3875 2.30147 20.2967 2.28592C20.2057 2.27037 20.1145 2.25711 20.0231 2.24614C19.9316 2.23516 19.84 2.22648 19.7481 2.22011C19.6562 2.21374 19.5642 2.20967 19.4722 2.20791C19.3802 2.20615 19.2882 2.2067 19.1962 2.20955C19.1042 2.21241 19.0123 2.21757 18.9205 2.22504C18.8287 2.23251 18.7371 2.24227 18.6458 2.25433C18.5544 2.2664 18.4633 2.28075 18.3726 2.29738C18.2819 2.31401 18.1916 2.33291 18.1016 2.35408C18.0117 2.37524 17.9223 2.39864 17.8334 2.42429C17.7445 2.44994 17.6562 2.47781 17.5686 2.50789C17.4809 2.53797 17.3939 2.57024 17.3076 2.60468C17.2213 2.63912 17.1358 2.67571 17.0512 2.71445C16.9665 2.75318 16.8827 2.79401 16.7998 2.83696C16.7169 2.8799 16.6349 2.92489 16.554 2.97194C16.4731 3.01899 16.3932 3.06805 16.3144 3.1191C16.2355 3.17016 16.1579 3.22317 16.0814 3.27813C16.0048 3.33308 15.9296 3.38993 15.8556 3.44866C15.7815 3.50739 15.7088 3.56794 15.6374 3.63032C15.566 3.69271 15.496 3.75684 15.4274 3.82274C15.3588 3.88863 15.2917 3.95621 15.226 4.02547C15.1604 4.09473 15.0962 4.16561 15.0336 4.23809C14.971 4.31057 14.9101 4.38458 14.8507 4.46012C14.7913 4.53565 14.7337 4.61264 14.6777 4.69107C14.6216 4.76951 14.5674 4.84931 14.5149 4.93046C14.4623 5.01162 14.4116 5.09405 14.3626 5.17776C14.3137 5.26146 14.2666 5.34635 14.2213 5.43241C14.1761 5.51847 14.1327 5.60562 14.0912 5.69385C14.0498 5.78209 14.0103 5.87133 13.9727 5.96155C13.9351 6.05177 13.8995 6.1429 13.8659 6.23493C13.8323 6.32696 13.8007 6.41976 13.7711 6.51333C13.7415 6.60694 13.7141 6.70125 13.6886 6.7962C13.6631 6.89115 13.6397 6.98671 13.6184 7.08288C13.5971 7.17904 13.5779 7.2757 13.5608 7.37281C13.5437 7.46991 13.5287 7.5674 13.5158 7.66528C13.503 7.76315 13.4922 7.8613 13.4837 7.95968C13.4751 8.0581 13.4687 8.1567 13.4643 8.2554C13.46 8.3541 13.4579 8.45292 13.4579 8.55173C13.4579 8.65055 13.46 8.74936 13.4643 8.84806C13.4687 8.94677 13.4751 9.04536 13.4837 9.14379C13.4922 9.24216 13.503 9.34031 13.5158 9.43819C13.5287 9.53606 13.5437 9.63355 13.5608 9.73066C13.5779 9.82776 13.5971 9.92442 13.6184 10.0206C13.6397 10.1168 13.6631 10.2123 13.6886 10.3073C13.7141 10.4022 13.7415 10.4965 13.7711 10.5901C13.8007 10.6837 13.8323 10.7765 13.8659 10.8685C13.8995 10.9606 13.9351 11.0517 13.9727 11.1419C14.0103 11.2321 14.0498 11.3214 14.0912 11.4096C14.1327 11.4978 14.1761 11.585 14.2213 11.6711C14.2666 11.7571 14.3137 11.842 14.3626 11.9257C14.4116 12.0094 14.4623 12.0918 14.5149 12.173C14.5674 12.2541 14.6216 12.334 14.6777 12.4124C14.7337 12.4908 14.7913 12.5678 14.8507 12.6433C14.9101 12.7188 14.971 12.7929 15.0336 12.8654C15.0962 12.9378 15.1604 13.0087 15.226 13.078C15.2917 13.1472 15.3588 13.2148 15.4274 13.2807C15.496 13.3466 15.566 13.4107 15.6374 13.4731C15.7088 13.5355 15.7815 13.596 15.8556 13.6548C15.9296 13.7136 16.0048 13.7704 16.0814 13.8253C16.1579 13.8803 16.2355 13.9333 16.3144 13.9843C16.3932 14.0354 16.4731 14.0845 16.554 14.1315C16.635 14.1786 16.7169 14.2236 16.7998 14.2665C16.8827 14.3095 16.9665 14.3503 17.0512 14.389C17.1358 14.4278 17.2213 14.4643 17.3076 14.4988C17.3939 14.5332 17.4809 14.5655 17.5686 14.5956C17.6562 14.6257 17.7445 14.6535 17.8334 14.6792C17.9223 14.7048 18.0117 14.7282 18.1016 14.7494C18.1916 14.7705 18.2819 14.7895 18.3726 14.8061C18.4633 14.8227 18.5544 14.837 18.6458 14.8491C18.7371 14.8612 18.8287 14.871 18.9205 14.8784C19.0123 14.8859 19.1042 14.891 19.1962 14.8939C19.2882 14.8968 19.3802 14.8973 19.4722 14.8956C19.5642 14.8938 19.6562 14.8897 19.7481 14.8834C19.84 14.877 19.9316 14.8683 20.0231 14.8573C20.1145 14.8464 20.2057 14.8331 20.2967 14.8176C20.3875 14.802 20.4781 14.7842 20.5682 14.7641C20.6583 14.744 20.7479 14.7216 20.8371 14.6971C20.9263 14.6724 21.0149 14.6456 21.1028 14.6166C21.1908 14.5876 21.2781 14.5564 21.3647 14.5229C21.4514 14.4896 21.5372 14.454 21.6223 14.4162C21.7074 14.3785 21.7916 14.3387 21.875 14.2967C21.9583 14.2548 22.0407 14.2108 22.1221 14.1647C22.2035 14.1186 22.2839 14.0705 22.3633 14.0204C22.4426 13.9703 22.5208 13.9182 22.5979 13.8641C22.675 13.8101 22.7508 13.7542 22.8255 13.6963C22.9001 13.6385 22.9734 13.5788 23.0455 13.5172M27.1818 1.37932L27.1818 14.8966L34.2727 14.8966M44.9091 1.10345L44.9091 16M50.2273 1.10345L50.2273 16">
</path>
</svg>
