<svg xmlns="http://www.w3.org/2000/svg" xmlns:xlink="http://www.w3.org/1999/xlink" width="12" height="12" viewBox="0 0 12 12" fill="none">
<path d="M0.292894 0.292892C-0.0976304 0.683417 -0.0976299 1.31658 0.292895 1.70711L10.2929 11.7071C10.6834 12.0976 11.3166 12.0976 11.7071 11.7071C12.0976 11.3165 12.0976 10.6834 11.7071 10.2929L1.70711 0.292891C1.31658 -0.097633 0.683418 -0.0976325 0.292894 0.292892Z" fill-rule="evenodd"  fill="white" >
</path>
<path d="M0.292922 11.7071C0.683446 12.0976 1.31661 12.0976 1.70714 11.7071L11.7071 1.70714C12.0977 1.31661 12.0976 0.683454 11.7071 0.292929C11.3166 -0.0975962 10.6834 -0.0976076 10.2929 0.292927L0.292923 10.2929C-0.097602 10.6834 -0.0976025 11.3166 0.292922 11.7071Z" fill-rule="evenodd"  fill="white" >
</path>
</svg>
